<?xml version="1.0" encoding="utf-8"?>
<!-- Generator: Adobe Illustrator 25.2.1, SVG Export Plug-In . SVG Version: 6.00 Build 0)  -->
<svg version="1.1" id="Capa_1" xmlns="http://www.w3.org/2000/svg" xmlns:xlink="http://www.w3.org/1999/xlink" x="0px" y="0px"
	 viewBox="0 0 60 60" style="enable-background:new 0 0 60 60;" xml:space="preserve">
<style type="text/css">
	.st0{fill:url(#SVGID_1_);}
	.st1{fill:url(#SVGID_2_);}
	.st2{fill:url(#SVGID_3_);}
	.st3{fill:url(#SVGID_4_);}
	.st4{fill:url(#SVGID_5_);}
	.st5{fill:url(#SVGID_6_);}
	.st6{fill:url(#SVGID_7_);}
	.st7{fill:url(#SVGID_8_);}
	.st8{fill:url(#SVGID_9_);}
	.st9{fill:url(#SVGID_10_);}
	.st10{fill:url(#SVGID_11_);}
	.st11{fill:url(#SVGID_12_);}
</style>
<g>
	<g>
		<linearGradient id="SVGID_1_" gradientUnits="userSpaceOnUse" x1="18" y1="22.5" x2="42" y2="22.5">
			<stop  offset="0" style="stop-color:#00FFA3"/>
			<stop  offset="1" style="stop-color:#DC1FFF"/>
		</linearGradient>
		<path class="st0" d="M20,21c0-2.8,2.2-5,5-5h1.3l2.8,7.4c0.1,0.3,0.5,0.6,0.9,0.6s0.8-0.3,1.1-0.6l2.8-7.4H35c2.8,0,5,2.2,5,5v10
			h2V21c0-3.9-3.1-7-7-7H25c-3.9,0-7,3.1-7,7v10h2V21L20,21z M30.1,20.2L28.5,16h3.2L30.1,20.2z"/>
		<linearGradient id="SVGID_2_" gradientUnits="userSpaceOnUse" x1="29" y1="26" x2="31" y2="26">
			<stop  offset="0" style="stop-color:#00FFA3"/>
			<stop  offset="1" style="stop-color:#DC1FFF"/>
		</linearGradient>
		<rect x="29" y="25" class="st1" width="2" height="2"/>
		<linearGradient id="SVGID_3_" gradientUnits="userSpaceOnUse" x1="29" y1="30" x2="31" y2="30">
			<stop  offset="0" style="stop-color:#00FFA3"/>
			<stop  offset="1" style="stop-color:#DC1FFF"/>
		</linearGradient>
		<rect x="29" y="29" class="st2" width="2" height="2"/>
		<linearGradient id="SVGID_4_" gradientUnits="userSpaceOnUse" x1="24" y1="6.5" x2="36" y2="6.5">
			<stop  offset="0" style="stop-color:#00FFA3"/>
			<stop  offset="1" style="stop-color:#DC1FFF"/>
		</linearGradient>
		<path class="st3" d="M29,13h2c2.8,0,5-2.2,5-5V5c0-2.8-2.2-5-5-5h-2c-2.8,0-5,2.2-5,5v3C24,10.8,26.2,13,29,13z M26,5
			c0-1.7,1.3-3,3-3h2c1.7,0,3,1.3,3,3v3c0,1.7-1.3,3-3,3h-2c-1.7,0-3-1.3-3-3V5z"/>
		<linearGradient id="SVGID_5_" gradientUnits="userSpaceOnUse" x1="23" y1="27.5" x2="25" y2="27.5">
			<stop  offset="0" style="stop-color:#00FFA3"/>
			<stop  offset="1" style="stop-color:#DC1FFF"/>
		</linearGradient>
		<rect x="23" y="24" class="st4" width="2" height="7"/>
		<linearGradient id="SVGID_6_" gradientUnits="userSpaceOnUse" x1="35" y1="27.5" x2="37" y2="27.5">
			<stop  offset="0" style="stop-color:#00FFA3"/>
			<stop  offset="1" style="stop-color:#DC1FFF"/>
		</linearGradient>
		<rect x="35" y="24" class="st5" width="2" height="7"/>
		<linearGradient id="SVGID_7_" gradientUnits="userSpaceOnUse" x1="0" y1="55" x2="24" y2="55">
			<stop  offset="0" style="stop-color:#00FFA3"/>
			<stop  offset="1" style="stop-color:#DC1FFF"/>
		</linearGradient>
		<path class="st6" d="M17,50H7c-3.9,0-7,3.1-7,7v3h2v-3c0-2.8,2.2-5,5-5h1.3l2.8,7.4c0.1,0.3,0.5,0.6,0.9,0.6s0.8-0.3,1.1-0.6
			l2.8-7.4H17c2.8,0,5,2.2,5,5v3h2v-3C24,53.1,20.9,50,17,50z M12.1,56.2L10.5,52h3.2L12.1,56.2z"/>
		<linearGradient id="SVGID_8_" gradientUnits="userSpaceOnUse" x1="6" y1="42.5" x2="18" y2="42.5">
			<stop  offset="0" style="stop-color:#00FFA3"/>
			<stop  offset="1" style="stop-color:#DC1FFF"/>
		</linearGradient>
		<path class="st7" d="M11,49h2c2.8,0,5-2.2,5-5v-3c0-2.8-2.2-5-5-5h-2c-2.8,0-5,2.2-5,5v3C6,46.8,8.2,49,11,49z M8,41
			c0-1.7,1.3-3,3-3h2c1.7,0,3,1.3,3,3v3c0,1.7-1.3,3-3,3h-2c-1.7,0-3-1.3-3-3V41z"/>
		<linearGradient id="SVGID_9_" gradientUnits="userSpaceOnUse" x1="36" y1="55" x2="60" y2="55">
			<stop  offset="0" style="stop-color:#00FFA3"/>
			<stop  offset="1" style="stop-color:#DC1FFF"/>
		</linearGradient>
		<path class="st8" d="M53,50H43c-3.9,0-7,3.1-7,7v3h2v-3c0-2.8,2.2-5,5-5h1.3l2.8,7.4c0.1,0.3,0.5,0.6,0.9,0.6s0.8-0.3,1.1-0.6
			l2.8-7.4H53c2.8,0,5,2.2,5,5v3h2v-3C60,53.1,56.9,50,53,50z M48.1,56.2L46.5,52h3.2L48.1,56.2z"/>
		<linearGradient id="SVGID_10_" gradientUnits="userSpaceOnUse" x1="42" y1="42.5" x2="54" y2="42.5">
			<stop  offset="0" style="stop-color:#00FFA3"/>
			<stop  offset="1" style="stop-color:#DC1FFF"/>
		</linearGradient>
		<path class="st9" d="M42,44c0,2.8,2.2,5,5,5h2c2.8,0,5-2.2,5-5v-3c0-2.8-2.2-5-5-5h-2c-2.8,0-5,2.2-5,5V44z M44,41
			c0-1.7,1.3-3,3-3h2c1.7,0,3,1.3,3,3v3c0,1.7-1.3,3-3,3h-2c-1.7,0-3-1.3-3-3V41z"/>
		<linearGradient id="SVGID_11_" gradientUnits="userSpaceOnUse" x1="20" y1="39.5" x2="40" y2="39.5">
			<stop  offset="0" style="stop-color:#00FFA3"/>
			<stop  offset="1" style="stop-color:#DC1FFF"/>
		</linearGradient>
		<polygon class="st10" points="20,45 40,45 40,43 31,43 31,34 29,34 29,43 20,43 		"/>
	</g>
</g>
<linearGradient id="SVGID_12_" gradientUnits="userSpaceOnUse" x1="125.9893" y1="181.7842" x2="-93.6768" y2="602.5331" gradientTransform="matrix(1 0 0 1 0 -454)">
	<stop  offset="0" style="stop-color:#00FFA3"/>
	<stop  offset="1" style="stop-color:#DC1FFF"/>
</linearGradient>
<path class="st11" d="M-74.3-180.8c2.5-2.4,5.8-3.8,9.2-3.8h317.4c5.8,0,8.7,7,4.6,11.1l-62.7,62.7c-2.4,2.4-5.7,3.8-9.2,3.8h-317.4
	c-5.8,0-8.7-7-4.6-11.1L-74.3-180.8z"/>
</svg>
